<?xml version="1.0" encoding="utf-8"?>
<!-- Generator: Adobe Illustrator 16.0.3, SVG Export Plug-In . SVG Version: 6.00 Build 0)  -->
<!DOCTYPE svg PUBLIC "-//W3C//DTD SVG 1.1//EN" "http://www.w3.org/Graphics/SVG/1.1/DTD/svg11.dtd">
<svg version="1.1" id="Layer_1" xmlns="http://www.w3.org/2000/svg" xmlns:xlink="http://www.w3.org/1999/xlink" x="0px" y="0px"
	 width="19px" height="15px" viewBox="0 0 19 15" enable-background="new 0 0 19 15" xml:space="preserve">
<path fill="#2BAEE4" d="M-15.369,7.516c0,0.164-0.058,0.303-0.172,0.416c-0.115,0.115-0.254,0.172-0.418,0.172
	c-0.208,0-0.372-0.088-0.491-0.264l-1.393-2.093h-0.276v0.81l1.516,2.523c0.037,0.063,0.056,0.129,0.056,0.203
	c0,0.105-0.039,0.197-0.117,0.275c-0.077,0.078-0.17,0.117-0.275,0.117h-1.179v1.67c0,0.188-0.067,0.35-0.203,0.484
	c-0.135,0.135-0.297,0.203-0.484,0.203h-0.982c-0.188,0-0.35-0.068-0.485-0.203c-0.135-0.135-0.202-0.297-0.202-0.484v-1.67h-1.179
	c-0.106,0-0.198-0.039-0.276-0.117c-0.077-0.078-0.116-0.17-0.116-0.275c0-0.074,0.019-0.141,0.055-0.203l1.517-2.523v-0.81h-0.276
	l-1.394,2.093c-0.118,0.176-0.282,0.264-0.491,0.264c-0.163,0-0.303-0.057-0.417-0.172c-0.114-0.113-0.172-0.252-0.172-0.416
	c0-0.12,0.032-0.228,0.099-0.326l1.571-2.357c0.299-0.438,0.658-0.657,1.08-0.657h2.357c0.421,0,0.781,0.219,1.08,0.657l1.571,2.357
	C-15.402,7.288-15.369,7.396-15.369,7.516z M-18.325,1.631c0.269,0.268,0.402,0.592,0.402,0.973c0,0.38-0.134,0.705-0.402,0.973
	c-0.268,0.268-0.592,0.402-0.973,0.402s-0.705-0.134-0.973-0.402c-0.269-0.268-0.402-0.592-0.402-0.973
	c0-0.381,0.134-0.705,0.402-0.973c0.268-0.268,0.592-0.402,0.973-0.402S-18.592,1.363-18.325,1.631z"/>
<path fill="#2BAEE4" d="M-8.094,5.354v2.554c0,0.164-0.057,0.303-0.172,0.418C-8.381,8.439-8.52,8.498-8.684,8.498
	S-8.986,8.439-9.1,8.326c-0.115-0.115-0.172-0.254-0.172-0.418V5.747h-0.395v5.599c0,0.188-0.066,0.35-0.201,0.484
	s-0.297,0.203-0.486,0.203c-0.188,0-0.35-0.068-0.484-0.203s-0.203-0.297-0.203-0.484V8.498h-0.393v2.848
	c0,0.188-0.066,0.35-0.201,0.484c-0.137,0.135-0.297,0.203-0.486,0.203c-0.188,0-0.35-0.068-0.484-0.203s-0.203-0.297-0.203-0.484
	V5.747h-0.392v2.161c0,0.164-0.058,0.303-0.172,0.418c-0.115,0.113-0.254,0.172-0.418,0.172c-0.163,0-0.303-0.059-0.417-0.172
	c-0.114-0.115-0.172-0.254-0.172-0.418V5.354c0-0.328,0.114-0.606,0.344-0.835s0.508-0.344,0.835-0.344h3.929
	c0.326,0,0.605,0.115,0.834,0.344S-8.094,5.027-8.094,5.354z M-10.264,1.631c0.268,0.268,0.402,0.592,0.402,0.973
	c0,0.38-0.135,0.705-0.402,0.973s-0.592,0.402-0.973,0.402s-0.705-0.134-0.973-0.402c-0.27-0.268-0.402-0.592-0.402-0.973
	c0-0.381,0.133-0.705,0.402-0.973c0.268-0.268,0.592-0.402,0.973-0.402S-10.531,1.363-10.264,1.631z"/>
<g>
	<circle fill="#2BAEE4" cx="7.535" cy="3.598" r="1.046"/>
	<path fill="#2BAEE4" d="M7.935,9.561V7.472l0.193,0.299c0.083,0.128,0.217,0.214,0.368,0.235l1.763,0.242
		c0.024,0.002,0.048,0.005,0.071,0.005c0.257,0,0.481-0.191,0.517-0.453c0.039-0.286-0.161-0.549-0.446-0.588L8.876,7.003
		c0,0-0.906-1.391-1.05-1.605C7.557,5.058,7.237,4.876,6.853,4.876c-0.255,0-0.531,0.043-0.819,0.246
		C6.002,5.137,4.598,6.184,4.598,6.184C4.475,6.278,4.397,6.422,4.391,6.578L4.302,8.361C4.29,8.648,4.51,8.894,4.799,8.908
		c0.009,0,0.017,0,0.026,0c0.277,0,0.508-0.218,0.522-0.497l0.075-1.538l0.414-0.31C5.839,6.57,5.842,6.576,5.845,6.58v2.974
		l-0.52,1.765l-1.526,1.205c-0.262,0.211-0.306,0.594-0.095,0.858c0.211,0.262,0.593,0.304,0.858,0.094l1.675-1.324
		c0.097-0.078,0.168-0.184,0.204-0.304l0.474-1.606l1.042,1.331v1.802c0,0.337,0.272,0.609,0.61,0.609
		c0.336,0,0.609-0.272,0.609-0.609v-2.022c0-0.144-0.051-0.284-0.143-0.394L7.935,9.561z"/>
	<path fill="#2BAEE4" d="M15.552,0.813H4.393c-0.192,0-0.348,0.157-0.348,0.349v3.207c0,0.192,0.156,0.349,0.348,0.349
		c0.193,0,0.349-0.157,0.349-0.349V1.509h6.91v11.865h-1.295c-0.192,0-0.347,0.156-0.347,0.349s0.155,0.349,0.347,0.349h5.196
		c0.193,0,0.349-0.156,0.349-0.349V1.162C15.9,0.969,15.745,0.813,15.552,0.813z M14.801,8.206L13.93,9.076
		c-0.043,0.042-0.097,0.063-0.153,0.063c-0.056,0-0.112-0.021-0.155-0.063l-0.869-0.871c-0.063-0.062-0.081-0.156-0.049-0.237
		c0.036-0.082,0.114-0.135,0.201-0.135h1.742c0.088,0,0.169,0.053,0.201,0.135C14.881,8.05,14.862,8.144,14.801,8.206z M14.647,7.05
		L14.647,7.05h-1.743c-0.088,0-0.167-0.052-0.201-0.134c-0.032-0.082-0.014-0.175,0.049-0.238l0.868-0.87
		c0.087-0.085,0.225-0.085,0.31,0l0.854,0.855c0.049,0.04,0.081,0.102,0.081,0.169C14.865,6.953,14.77,7.05,14.647,7.05z"/>
</g>
<g>
</g>
<g>
</g>
<g>
</g>
<g>
</g>
<g>
</g>
<g>
</g>
</svg>
