<?xml version="1.0" encoding="utf-8"?>
<!-- Generator: Adobe Illustrator 16.0.3, SVG Export Plug-In . SVG Version: 6.00 Build 0)  -->
<!DOCTYPE svg PUBLIC "-//W3C//DTD SVG 1.1//EN" "http://www.w3.org/Graphics/SVG/1.1/DTD/svg11.dtd">
<svg version="1.1" id="Layer_1" xmlns="http://www.w3.org/2000/svg" xmlns:xlink="http://www.w3.org/1999/xlink" x="0px" y="0px"
	 width="19px" height="15px" viewBox="0 0 19 15" enable-background="new 0 0 19 15" xml:space="preserve">
<path fill="#2BAEE4" d="M9.819,8.516c0,0.164-0.058,0.303-0.172,0.416C9.532,9.047,9.393,9.104,9.229,9.104
	c-0.208,0-0.372-0.088-0.491-0.264L7.345,6.747H7.069v0.81l1.516,2.523c0.037,0.063,0.056,0.129,0.056,0.203
	c0,0.105-0.039,0.197-0.117,0.275c-0.077,0.078-0.17,0.117-0.275,0.117H7.069v1.67c0,0.188-0.067,0.35-0.203,0.484
	c-0.135,0.135-0.297,0.203-0.484,0.203H5.399c-0.188,0-0.35-0.068-0.485-0.203c-0.135-0.135-0.202-0.297-0.202-0.484v-1.67H3.533
	c-0.106,0-0.198-0.039-0.276-0.117c-0.077-0.078-0.116-0.17-0.116-0.275c0-0.074,0.019-0.141,0.055-0.203l1.517-2.523v-0.81H4.435
	L3.042,8.84C2.923,9.016,2.759,9.104,2.55,9.104c-0.163,0-0.303-0.057-0.417-0.172C2.019,8.818,1.961,8.68,1.961,8.516
	c0-0.12,0.032-0.228,0.099-0.326l1.571-2.357C3.93,5.395,4.29,5.176,4.711,5.176h2.357c0.421,0,0.781,0.219,1.08,0.657L9.72,8.19
	C9.786,8.288,9.819,8.396,9.819,8.516z M6.863,2.631c0.269,0.268,0.402,0.592,0.402,0.973c0,0.38-0.134,0.705-0.402,0.973
	C6.595,4.845,6.271,4.979,5.89,4.979S5.185,4.845,4.917,4.577C4.649,4.309,4.515,3.985,4.515,3.604c0-0.381,0.134-0.705,0.402-0.973
	C5.185,2.363,5.509,2.229,5.89,2.229S6.595,2.363,6.863,2.631z"/>
<path fill="#2BAEE4" d="M17.094,6.354v2.554c0,0.164-0.057,0.303-0.172,0.418c-0.115,0.113-0.254,0.172-0.418,0.172
	s-0.303-0.059-0.416-0.172c-0.115-0.115-0.172-0.254-0.172-0.418V6.747h-0.395v5.599c0,0.188-0.066,0.35-0.201,0.484
	s-0.297,0.203-0.486,0.203c-0.188,0-0.35-0.068-0.484-0.203s-0.203-0.297-0.203-0.484V9.498h-0.393v2.848
	c0,0.188-0.066,0.35-0.201,0.484c-0.137,0.135-0.297,0.203-0.486,0.203c-0.188,0-0.35-0.068-0.484-0.203s-0.203-0.297-0.203-0.484
	V6.747h-0.392v2.161c0,0.164-0.058,0.303-0.172,0.418c-0.115,0.113-0.254,0.172-0.418,0.172c-0.163,0-0.303-0.059-0.417-0.172
	c-0.114-0.115-0.172-0.254-0.172-0.418V6.354c0-0.328,0.114-0.606,0.344-0.835s0.508-0.344,0.835-0.344h3.929
	c0.326,0,0.605,0.115,0.834,0.344S17.094,6.027,17.094,6.354z M14.924,2.631c0.268,0.268,0.402,0.592,0.402,0.973
	c0,0.38-0.135,0.705-0.402,0.973s-0.592,0.402-0.973,0.402s-0.705-0.134-0.973-0.402c-0.27-0.268-0.402-0.592-0.402-0.973
	c0-0.381,0.133-0.705,0.402-0.973c0.268-0.268,0.592-0.402,0.973-0.402S14.656,2.363,14.924,2.631z"/>
<g>
</g>
<g>
</g>
<g>
</g>
<g>
</g>
<g>
</g>
<g>
</g>
</svg>
