<?xml version="1.0" standalone="no"?>
<!DOCTYPE svg PUBLIC "-//W3C//DTD SVG 20010904//EN"
 "http://www.w3.org/TR/2001/REC-SVG-20010904/DTD/svg10.dtd">
<svg version="1.0" xmlns="http://www.w3.org/2000/svg"
 width="512.000000pt" height="512.000000pt" viewBox="0 0 512.000000 512.000000"
 preserveAspectRatio="xMidYMid meet">
<metadata>
Created by potrace 1.11, written by Peter Selinger 2001-2013
</metadata>
<g transform="translate(0.000000,512.000000) scale(0.100000,-0.100000)"
fill="#000000" stroke="none">
<path d="M1289 5078 c-41 -57 -50 -76 -93 -190 -33 -89 -98 -333 -125 -468 -6
-30 -14 -66 -16 -80 -6 -26 -53 -298 -60 -340 -2 -14 -6 -65 -10 -115 -3 -49
-8 -108 -10 -130 -3 -22 -7 -74 -10 -115 -3 -41 -7 -100 -9 -130 -3 -30 -8
-91 -11 -135 -6 -85 -13 -168 -20 -250 -3 -27 -7 -84 -10 -126 -4 -41 -8 -84
-10 -95 -2 -10 -4 -31 -4 -45 -1 -25 -5 -27 -61 -32 -70 -6 -119 -33 -144 -79
-17 -31 -22 -33 -68 -33 l-49 0 -54 85 c-30 47 -55 88 -55 93 0 4 16 7 35 7
l35 0 0 355 0 354 -127 -2 -128 -2 0 -347 0 -348 46 0 47 0 74 -112 c40 -62
76 -121 80 -131 10 -24 37 -32 98 -31 46 1 52 -1 65 -26 20 -39 57 -66 116
-85 l50 -17 -6 -51 c-3 -29 -8 -81 -11 -117 -4 -36 -8 -72 -9 -80 -2 -8 -4
-25 -4 -37 -1 -16 -6 -20 -20 -16 -35 9 -68 -47 -86 -144 -5 -31 -15 -136 -20
-223 -2 -41 -7 -86 -10 -100 -3 -14 -8 -84 -12 -156 -8 -174 11 -268 65 -322
l37 -37 -39 4 c-22 2 -41 -2 -46 -8 -10 -17 -4 -304 9 -386 21 -140 63 -242
117 -284 l27 -21 1736 0 c1734 0 1737 0 1759 20 73 69 106 234 107 545 l0 130
-46 3 -46 3 33 33 c18 18 37 51 43 73 11 41 16 188 8 228 -3 11 -8 40 -12 65
-3 25 -15 77 -25 116 -11 39 -22 106 -25 150 -8 119 -15 173 -32 241 -15 61
-46 109 -64 98 -5 -4 -9 -3 -10 2 0 4 -2 17 -4 28 -4 20 -11 71 -21 155 -3 25
-7 55 -10 67 -3 18 2 22 34 28 54 9 113 45 140 85 21 31 29 35 70 36 26 1 54
2 63 3 9 1 36 31 60 69 24 37 62 97 86 133 35 55 47 66 70 67 76 0 68 -39 68
350 l0 347 -128 2 -127 2 0 -355 0 -354 35 0 c19 0 35 -3 35 -7 0 -5 -25 -46
-55 -93 l-54 -84 -48 -1 c-45 -1 -49 2 -71 36 -31 53 -96 82 -169 77 -62 -3
-56 -10 -68 77 -10 74 -15 149 -20 320 -3 94 -7 215 -10 270 -12 279 -17 454
-16 492 2 37 -3 73 -23 178 -2 11 -7 40 -11 65 -4 25 -9 54 -11 65 -3 11 -9
43 -15 70 -6 28 -13 63 -16 79 -2 16 -20 92 -39 170 -57 230 -112 380 -173
464 l-31 42 -1250 0 -1250 0 -31 -42z m1227 -1571 l1 -457 -737 0 -737 0 2
353 c1 193 6 366 10 382 20 78 92 144 183 168 36 9 203 12 663 12 l614 0 1
-458z m1376 434 c67 -26 132 -91 147 -148 8 -29 15 -491 11 -720 l0 -23 -735
0 c-646 0 -735 2 -736 15 0 8 0 206 0 440 0 234 0 433 0 443 1 16 36 17 629
16 621 -1 628 -1 684 -23z m-439 -1564 c134 -33 210 -83 252 -167 44 -88 47
-136 20 -410 -2 -19 -6 -64 -10 -100 -3 -36 -8 -78 -10 -95 -2 -16 -7 -68 -10
-115 -9 -122 -29 -184 -76 -235 -45 -48 -118 -80 -214 -93 -33 -4 -424 -7
-870 -7 -896 2 -878 1 -975 66 -77 53 -106 113 -115 239 -3 41 -7 91 -10 110
-2 19 -7 69 -10 110 -3 41 -8 86 -10 100 -24 168 -25 312 -2 381 43 133 157
207 347 225 36 4 66 8 68 9 2 1 353 2 780 0 687 -1 785 -3 845 -18z m-2468
-598 c147 -34 280 -150 365 -319 26 -52 71 -171 66 -176 0 -1 -48 7 -105 17
-58 11 -125 22 -150 25 -26 3 -57 7 -71 9 -14 2 -72 7 -130 10 -82 5 -109 11
-124 25 -23 23 -34 83 -31 168 3 69 7 92 27 198 l11 61 46 -3 c25 -2 69 -9 96
-15z m3318 12 c4 0 6 -4 5 -8 -1 -5 4 -39 10 -78 34 -201 29 -320 -16 -344
-10 -5 -63 -12 -118 -15 -90 -5 -213 -19 -274 -31 -13 -3 -42 -7 -65 -10 -39
-6 -55 -9 -96 -21 -19 -5 -20 -3 -14 28 10 45 76 187 114 241 65 96 154 169
251 207 68 27 152 40 203 31z m-3128 -831 c-3 -5 3 -10 14 -10 10 0 22 6 25
13 3 7 5 7 3 -3 -1 -8 10 -31 25 -50 67 -89 92 -165 63 -193 -9 -10 -24 -18
-33 -18 -91 -7 -133 -5 -167 6 l-40 14 24 -20 c13 -10 18 -19 12 -19 -18 0
-65 72 -95 148 -28 69 -28 73 -12 91 20 22 105 45 142 38 13 -2 27 0 30 4 3 5
7 9 10 9 3 0 2 -4 -1 -10z m2835 1 c0 -3 19 -5 42 -5 50 2 118 -20 135 -42 9
-13 5 -32 -23 -97 -19 -45 -41 -87 -49 -93 -8 -6 -12 -13 -9 -16 3 -4 0 -9 -7
-14 -8 -5 -10 -3 -4 6 6 10 4 12 -11 6 -32 -13 -106 -17 -159 -9 -89 14 -90
68 -5 193 22 33 48 60 56 60 8 0 13 4 10 8 -3 5 1 9 9 9 8 0 15 -3 15 -6z
m-1885 -138 c0 -68 -4 -114 -10 -116 -5 -2 -67 -3 -136 -2 -143 3 -203 21
-252 78 -37 43 -67 142 -46 149 6 2 108 3 227 3 l217 0 0 -112z m843 0 c0 -62
-3 -114 -6 -114 -4 -1 -179 -2 -389 -3 -376 -1 -382 -1 -385 19 -2 11 -2 63 0
116 l3 96 388 0 388 0 1 -114z m506 80 c-15 -90 -53 -141 -131 -175 -37 -16
-70 -21 -169 -23 -68 -1 -128 1 -133 4 -10 7 -14 66 -12 169 l1 52 224 0 225
0 -5 -27z"/>
<path d="M1867 2364 c-1 -1 -36 -4 -77 -8 -81 -6 -94 -8 -155 -25 -95 -26
-173 -99 -196 -184 -14 -51 -16 -139 -6 -232 4 -38 9 -92 12 -120 6 -61 14
-144 20 -210 3 -27 7 -77 10 -110 9 -111 24 -155 70 -200 49 -49 112 -73 218
-84 94 -9 1599 -6 1655 3 105 17 179 61 211 125 22 42 28 72 37 186 11 139 13
169 18 210 3 22 8 72 11 110 4 39 8 81 11 95 9 50 5 179 -6 221 -16 59 -53
113 -97 144 -39 26 -137 59 -208 70 -79 12 -747 17 -740 6 4 -8 -16 -10 -62
-9 l-68 1 60 7 c50 6 40 7 -58 8 -77 1 -116 -2 -112 -8 4 -6 -9 -10 -32 -9
-38 1 -38 1 -8 9 17 4 -91 7 -238 7 -147 -1 -269 -2 -270 -3z m636 -11 c-13
-2 -35 -2 -50 0 -16 2 -5 4 22 4 28 0 40 -2 28 -4z m245 0 c-16 -2 -40 -2 -55
0 -16 2 -3 4 27 4 30 0 43 -2 28 -4z m50 -28 c-3 -3 -9 2 -12 12 -6 14 -5 15
5 6 7 -7 10 -15 7 -18z m2 -19 c0 -2 -8 -10 -17 -17 -16 -13 -17 -12 -4 4 13
16 21 21 21 13z m-817 -23 c3 -4 8 -42 12 -83 4 -41 9 -82 10 -91 2 -9 6 -52
10 -95 4 -43 9 -81 10 -84 2 -3 6 -43 10 -90 4 -47 8 -87 10 -90 2 -3 6 -41 9
-85 4 -44 9 -87 11 -95 2 -8 6 -46 10 -83 3 -37 8 -76 10 -85 1 -9 6 -49 10
-87 l6 -71 -198 1 c-190 1 -201 2 -241 25 -56 32 -90 99 -97 195 -3 39 -7 106
-11 150 -3 44 -7 87 -9 95 -2 8 -7 60 -10 115 -4 55 -10 126 -14 157 -10 74
-4 135 17 171 33 56 128 103 253 125 62 12 186 15 192 5z m388 -11 c-13 -2
-27 0 -32 5 -6 6 3 7 23 4 28 -4 29 -6 9 -9z m989 4 c14 -3 39 -9 55 -12 51
-11 129 -51 156 -81 52 -56 56 -72 45 -203 -4 -47 -9 -107 -11 -133 -5 -60
-15 -170 -20 -221 -2 -21 -7 -75 -10 -120 -8 -105 -10 -115 -28 -156 -37 -89
-91 -106 -327 -106 l-175 1 1 45 c0 52 11 165 24 260 5 36 12 94 15 130 3 36
7 81 10 100 6 42 12 96 20 170 4 30 8 71 11 90 2 19 6 63 10 97 3 34 7 70 9
80 2 10 4 31 4 47 l1 29 93 -6 c50 -3 103 -8 117 -11z m-872 -3 c-15 -2 -42
-2 -60 0 -18 2 -6 4 27 4 33 0 48 -2 33 -4z m105 0 c-7 -2 -21 -2 -30 0 -10 3
-4 5 12 5 17 0 24 -2 18 -5z m75 0 c-10 -2 -28 -2 -40 0 -13 2 -5 4 17 4 22 1
32 -1 23 -4z m80 0 c-10 -2 -28 -2 -40 0 -13 2 -5 4 17 4 22 1 32 -1 23 -4z
m295 -32 c17 -1 18 -7 12 -68 -4 -38 -8 -79 -10 -93 -3 -14 -7 -52 -10 -85 -3
-33 -7 -76 -10 -95 -7 -57 -14 -131 -20 -197 -3 -34 -7 -70 -9 -80 -2 -10 -7
-52 -11 -93 -4 -41 -9 -82 -10 -91 -2 -9 -6 -52 -10 -95 -4 -43 -9 -82 -12
-86 -2 -5 -178 -8 -391 -8 l-387 0 -1 28 c-1 31 -14 173 -19 205 -2 12 -6 54
-10 92 -13 148 -26 274 -30 305 -2 14 -6 57 -10 95 -3 39 -8 88 -10 110 -16
154 -16 153 1 157 14 2 883 2 947 -1z"/>
<path d="M644 511 c-2 -2 -4 -35 -4 -72 l0 -69 96 1 c53 0 97 -1 99 -3 1 -2 5
-46 9 -98 7 -116 12 -144 35 -195 35 -79 15 -75 367 -75 l314 0 19 37 c17 35
23 55 36 123 3 14 8 65 11 115 4 50 8 91 9 93 4 4 1887 4 1890 0 1 -2 5 -48 9
-103 6 -106 27 -205 52 -242 l14 -23 315 0 c342 0 328 -2 359 58 20 39 37 129
41 223 3 45 6 83 8 85 1 2 43 4 92 6 l90 3 0 70 0 70 -1928 0 c-1061 0 -1930
-2 -1933 -4z"/>
</g>
</svg>
